<?xml version="1.0" encoding="UTF-8"?>
<!DOCTYPE svg PUBLIC "-//W3C//DTD SVG 1.1//EN" "http://www.w3.org/Graphics/SVG/1.1/DTD/svg11.dtd">
<!-- Creator: CorelDRAW -->
<svg xmlns="http://www.w3.org/2000/svg" xml:space="preserve" width="14.4869in" height="5.26587in" version="1.1" style="shape-rendering:geometricPrecision; text-rendering:geometricPrecision; image-rendering:optimizeQuality; fill-rule:evenodd; clip-rule:evenodd"
viewBox="0 0 30666.25 11146.98"
 xmlns:xlink="http://www.w3.org/1999/xlink"
 xmlns:xodm="http://www.corel.com/coreldraw/odm/2003">
 <defs>
  <style type="text/css">
   <![CDATA[
    .fil2 {fill:#BAB7DB}
    .fil0 {fill:#75CFF5}
    .fil1 {fill:white}
   ]]>
  </style>
 </defs>
 <g id="Layer_x0020_1">
  <metadata id="CorelCorpID_0Corel-Layer"/>
  <path class="fil0" d="M2692.54 4432.99c0,-91.78 33.34,-107.05 91.53,-153.45l4172.36 -3291.83c78.09,32.89 455.27,337.87 551.67,411.81 191.53,146.95 363.23,284.99 541.68,423.62 363.9,282.71 714.98,554.25 1072.52,838.29 262.8,208.81 1932.92,1475.94 2143.93,1672.15l-4.89 6218.32 -8567.52 -5.02 -1.27 -6113.88 0 -0.02zm4289.67 -4432.99l-23.84 0 -1292.41 1033.55c-149.77,116.15 -292.63,226.54 -440.64,347.63 -754.93,617.57 -1838.47,1461.12 -2609.95,2059.87l-2508.72 1982.88c-24.34,19.77 -25.43,18.02 -53.9,44.15 -4.38,4 -17.04,16.18 -21.17,20.38 -20.78,21.21 -14.06,13.29 -31.59,35.48l1026.62 0.07c176.82,1.57 173.07,12.73 282.05,-80.08 79.17,-67.42 700.12,-564.71 790.85,-609.69l-0.25 6305.96 9755.11 6.78 3.24 -6344.51c84.95,39.97 702.41,540.18 785.94,603.13 73.03,55.06 109.48,112.43 222.69,119.16 107.83,6.42 244.7,-0.95 355.94,-0.95 237.11,0 474.21,0.03 711.32,-0.04l-2042.44 -1630.87c-51.7,-48.45 -27.05,-8.32 -52.2,-70.64l-0.43 -1351.09 -578.24 -2.75 -4.47 911.23 -4273.54 -3379.63 0.02 -0.02z"/>
  <path class="fil1" d="M9032.59 3546.6c-592.88,11.62 -1718.34,258.76 -2144.6,521.92 -613.61,378.79 -768.29,1288.43 -287.61,1784.96 482.68,498.6 1457.16,332.51 1807.53,-264.48 264.9,-451.37 583.7,-1506.74 624.7,-2042.4l-0.01 0z"/>
  <path class="fil2" d="M9032.59 3546.6c-41,535.67 -359.79,1591.03 -624.7,2042.4 -350.36,596.99 -1324.84,763.08 -1807.53,264.48 -480.67,-496.52 -325.99,-1406.17 287.61,-1784.96 426.27,-263.15 1551.72,-510.31 2144.6,-521.92l0.01 0zm-2828.36 2639.88c-140.26,254.91 -212.32,500.82 -209.59,847.83 1.72,218.57 -6.73,148.75 216.53,311.57 103.45,75.45 226.23,165.92 337.7,226.88 -63.1,-199.87 -138.29,-321.95 -159.3,-562.32 -16.07,-184.04 6.88,-469.3 58.97,-639.37 74.6,27.29 155.82,84.59 247.16,115.92 96.63,33.13 212.08,60.08 323.52,70.61 618.09,58.57 1204.01,-262.79 1490.88,-808.16 284.14,-540.19 645.87,-1763.6 698.91,-2381.97 -768.09,36.09 -2048.65,302.47 -2608.34,630.52 -600.76,352.11 -949.84,1239.13 -558.87,1940.78 49.36,88.61 131.63,177.77 162.4,247.71l0.01 -0.01z"/>
  <path class="fil2" d="M6072.44 8820.65c156.25,-12.11 354.8,-14.16 342.99,182.9 -10.06,167.85 -179.74,172.01 -342.86,161.35l-0.13 -344.24 -0.01 -0.01zm455.9 463.97c235.71,-187.82 204.11,-435.67 82.91,-565.44 -157.13,-168.29 -547.37,-137.04 -818.35,-130.5l-0.55 1308.35 280.31 0.07 0.58 -501.16 135.01 0.78c60.95,68.12 277.28,411.01 312.27,499.72l309.27 1.44c-61.81,-157.07 -272.5,-398.83 -364.92,-559.04l63.5 -54.21 -0.04 -0.01z"/>
  <path class="fil2" d="M4399.25 8591.19c-7.3,655.27 -161.51,1337.41 548.38,1323.85 685.69,-13.13 528.93,-666.02 525.29,-1325.29l-277.03 -2.9c-0.87,230.93 -0.25,462.06 0.08,692.99 0.32,224.68 -7.05,408 -268.67,401.73 -254.36,-6.1 -251.69,-191.26 -251.29,-421.5 0.38,-224.32 0.43,-448.7 0,-673.36l-276.78 4.47 0.01 0.02z"/>
  <path class="fil2" d="M9148.98 8820.69l159.08 529.99 -331.28 -4.72 172.21 -525.27zm-335.09 1075.58c14.16,-80.55 63.71,-250.49 99.34,-311.81l463.63 -0.55 101.73 309.03 290.01 4.74c-34.65,-145.79 -416.66,-1237.4 -467.04,-1312.41l-333 1.13 -456.14 1310.44 301.5 -0.59 -0.03 0.02z"/>
  <path class="fil2" d="M4634.13 6534.3c26.99,211.47 156.58,612.99 260.03,769.44 126.69,191.64 474.06,359.74 701.52,141.87 224.18,-214.73 64.41,-586.6 -127.18,-696.9 -188.25,-108.36 -574.64,-204.19 -834.37,-214.43l0 0.03z"/>
  <path class="fil2" d="M8626.99 6877.48c-234.08,-21.57 -778.74,36.7 -991.31,106.23 -149.13,48.77 -248.33,115.26 -344.24,207.17 -588.35,563.97 702.51,623.28 1116.8,33 69.96,-99.66 168.75,-231.73 218.75,-346.4z"/>
  <path class="fil2" d="M3532.85 8823.47c177.98,-24.26 358.46,-6.03 345.58,197.86 -10.73,169.7 -182.56,196.02 -344.66,178.05l-0.91 -375.9 -0.01 0zm0.55 613.73c199.66,-26.04 345.51,11.12 491.23,-114.71 103.62,-89.5 165.55,-253.51 123.58,-446.25 -71.74,-329.4 -535.9,-316.47 -891.59,-284.41l-0.11 1303.74 277.33 2.27 -0.43 -460.62 -0.03 -0.01z"/>
  <path class="fil2" d="M10698.02 8668.96c-157.47,-115.16 -487.55,-138.8 -661.79,-33.28 -180.25,109.14 -224.77,378.4 -69.94,550.25 115.67,128.37 457.66,206.82 470.1,353.66 24.39,287.41 -544.3,53.85 -578.53,48.65l-0.85 244.96c280.06,149.39 788.25,111.81 847.27,-219.01 81.26,-455.52 -453.66,-439.35 -554.97,-649.7 -8.28,-278.21 316.38,-124.81 471.15,-92.48l77.54 -203.02 0.02 -0.03z"/>
  <polygon class="fil2" points="7491.1,8818.88 7837.68,8827.15 7837.35,9898.1 8116.47,9892.87 8116.11,8819.78 8469.2,8817.52 8470.94,8587.87 7481.25,8586.78 "/>
  <polygon class="fil2" points="7011.68,9897.09 7281.74,9894.24 7282.01,8589.62 7003.95,8596.57 "/>
  <g id="_105553192272800">
   <path class="fil2" d="M15051.57 8035.66l205.6 -2.42 301.31 -1141.5c19.48,-61.64 4.23,-30.39 31.88,-75.85l275.94 1215.23 209.02 5.53 416.31 -1485.09 -195.26 -5.39 -316.77 1231.26 -286.51 -1233.01 -203.56 3.18 -324.85 1241.36 -284.86 -1241.66 -199.54 -1.04 371.32 1489.36 -0.02 0.03z"/>
   <path class="fil2" d="M29650.25 4669.89c105.03,80.22 252.54,278.71 351.56,386.12 3.68,4.02 9,9.11 12.66,13.21l48.29 60.44c-117.51,138.38 -388.02,195.77 -527.83,39.79 -113.61,-126.73 -107.96,-373.54 115.34,-499.57l-0.02 0.01zm63.75 -188.12c-37.59,-79.83 -108.51,-176.89 -87,-307.05 17.58,-106.23 111.25,-199.22 243.7,-156.74 145.51,46.63 192.28,350.54 -156.71,463.79l0.01 0zm-156.31 67.22c-100.12,89.82 -197.57,124.99 -255.35,283.77 -179.25,492.55 453.24,754.57 852.84,421.03 158.94,87.51 110.11,157.83 369.69,124.75l-218.03 -249.57c86.41,-201.14 162.17,-275.83 196.97,-554.2l-177.38 -5.78 -145.98 421.37c-131.21,-109.08 -208.33,-267.52 -348.49,-385.4 74.79,-100.82 256.75,-131.51 306.89,-324.66 51.32,-197.67 -58.13,-348.69 -206.02,-392.99 -237.72,-71.15 -695.37,116.08 -375.11,661.65l-0.03 0.02z"/>
   <path class="fil2" d="M20060.09 5381.32l182.16 6.27 -7.7 -1226.6c23.55,29.63 8.18,5.73 43.62,63.43 113.68,184.92 632.06,1136.43 737.26,1162.01l162.9 0.13 -0.62 -1492.24 -177.58 5.53 5.83 1202.45c-58.59,-71.8 -118.81,-219.27 -166.56,-301.42l-566.34 -898.17 -209.12 -5.67 -3.83 1484.33 -0.03 -0.06z"/>
   <path class="fil2" d="M21707.15 5222.71c-4.07,-334.73 2.83,-669.72 -2.49,-1004.39 -1.88,-118.95 -66.16,-214.51 320.5,-175.61 828.37,83.33 618.93,1422.24 -318.01,1179.98l0 0.02zm-194.87 -1310.24l-0.05 1471.26c669.74,36.29 1193.97,-37.03 1223.88,-732.92 36.27,-843.13 -738.67,-777.59 -1223.83,-738.34l0 0.01z"/>
   <path class="fil2" d="M17188.31 6690.71c643.83,-157.65 766.07,1088.3 177.57,1200.02 -331.44,62.9 -530.95,-200.66 -563.19,-490.86 -40.99,-368.71 95.68,-638.13 385.64,-709.12l-0.03 -0.03zm-77.23 1367.71l307.35 0c218.83,-136.18 556.99,-204.91 533.26,-831.17 -35.08,-926.04 -1246.05,-946.79 -1353.83,-52.58 -79.11,656.17 313.42,762.16 513.22,883.74l0.01 0.01z"/>
   <polygon class="fil2" points="25675.63,8036.71 25869.92,8035.64 25872.14,7341.46 26580.9,7337.36 26589.55,8036.81 26784.3,8028.69 26784.83,6557.35 26591.55,6543.33 26587.45,7162.5 25876.16,7166.38 25869.57,6545.44 25677.89,6544.85 "/>
   <polygon class="fil2" points="18201.6,8036.88 18393.44,8034.8 18397.08,7340.61 19107.04,7337.55 19115.46,8036.58 19309.54,8035.76 19309.87,6544.93 19117.05,6545.61 19113.42,7161.68 18401.59,7166.57 18394.04,6546.5 18203.71,6544.55 "/>
   <polygon class="fil2" points="22985.65,5383.6 23178.47,5381.95 23178.15,4687.23 23898.31,4687.74 23898.36,5380.64 24094.06,5385.39 24093.71,3899.6 23901.92,3897.61 23896.54,4518.09 23186.42,4517.03 23177.14,3903.82 22990.35,3896.26 "/>
   <path class="fil2" d="M16151.92 5315.83l7.35 -704.86 -487.45 -7.43 -4.37 147.19 295.28 7.82 8.68 449.04c-501.39,115.73 -863.56,-119.31 -827.56,-630.05 35.75,-507.16 444.07,-589.95 932,-475.89l36.98 -153.48c-496.67,-201.58 -1191.69,22.16 -1175.47,727.36 17.14,746.23 765.53,834.67 1214.55,640.35l0 -0.04z"/>
   <polygon class="fil2" points="23193.34,8027.86 23383.05,8034.2 23384.25,7337.18 24105.81,7337.19 24105.18,8024.86 24299.42,8036.61 24301.07,6547.35 24107.23,6550.06 24102.96,7167.7 23393.35,7166.9 23382.88,6550.27 23195.88,6548.21 "/>
   <path class="fil2" d="M28814.55 8058.42l257.25 0c154.05,-82.98 384.6,-93.5 427.79,-530.06 24.93,-251.69 18.28,-724.75 3.01,-982.59l-190.35 -0.98c-20.8,625.33 134.99,1335.19 -344.46,1353.99 -512.67,20.1 -343.91,-759.66 -369.74,-1354.53l-189.48 2.12c-18.93,298.04 -66.62,1088.49 115.68,1324.76 94.89,122.99 144.48,107.64 290.31,187.28l-0.02 0.01z"/>
   <path class="fil2" d="M19722.47 3899.37l-187.77 -1.47c-36.22,610.87 147.33,1351.82 -362.47,1351.66 -512.18,-0.16 -318.83,-917.78 -355.06,-1351.92l-187.36 2.72c-12.32,265.05 -22.71,763.98 5.26,1008.71 79.89,698.6 994.66,661.11 1081.09,3.97 28.87,-219.38 24.09,-781.72 6.33,-1013.65l-0.01 -0.01z"/>
   <path class="fil2" d="M22172.38 8058.42l257.16 0c130.94,-72.07 214.74,-75.98 297.64,-182.18 70.72,-90.63 114.44,-213.6 126.28,-350.1 22.6,-260.45 17.49,-713.38 2.17,-978.01l-188.58 1.09c-24.01,598.94 140,1352.92 -364,1350.06 -484.05,-2.75 -328.39,-779.94 -350.59,-1354.64l-191.52 6.59c-10.3,287.65 -15.68,667.29 0.84,946.59 8.23,138.61 37.98,251.84 108.57,361.39 96.44,149.65 143.07,115.37 302.02,199.22z"/>
   <path class="fil2" d="M27624.84 6742.92l214.49 672.67 -435.93 -6.33 221.44 -666.35 0 0.01zm-620.21 1291.89l204 0.44 148.33 -463.55 500.71 -5.73c114.64,99.07 107.75,340.77 201.99,465.53l187.53 5.27c-32.15,-144.43 -464.12,-1414.97 -515.77,-1487.56l-221.7 -1.68 -505.06 1487.29 -0.03 -0.02z"/>
   <path class="fil2" d="M16453.22 5377.26c137.31,20.13 282.34,9.08 421.52,9.06l351.64 -5.75c47.56,-10.44 39.94,-9.19 64.21,-23.65l0.03 -100.99c-88.71,-59.38 -486.93,-31.84 -637.65,-33.47l-6.27 -534.4 577.2 -1.74 -2.66 -154.24 -576.45 -4.13 -0.71 -469.21 601.41 -0.43 12.66 -161.65 -801.79 1.01 -3.15 1479.63 -0.03 -0.03z"/>
   <polygon class="fil2" points="24427.26,5381.81 25265.45,5386.7 25265.64,5222.49 24627.97,5223.06 24616.87,4687.55 25189.6,4687.14 25197.42,4535.72 24618.33,4527.78 24617.82,4057.71 25220.5,4058.19 25230.84,3899.05 24431.44,3896.94 "/>
   <path class="fil2" d="M30025.42 8058.42l253.39 0c196.07,-105.27 338.93,-90.82 380.21,-356.55 93.65,-603.06 -756.08,-428.01 -659.44,-850.94 53.81,-235.69 364.05,-160.4 559.16,-105.28l43.73 -149.52c-536.93,-305.28 -1143.86,297.53 -605.91,661.76 179.26,121.37 522.93,131.48 463.41,443.07 -58.86,308.27 -438.91,163.21 -652.84,107.66l-39.59 147.76c100.77,73 161.26,56.42 257.9,102.07l-0.01 -0.03z"/>
   <path class="fil2" d="M17508.19 5157.63l-39.09 170.52c1004.86,296.98 1003.43,-458.69 768.51,-652.46 -152.89,-126.08 -496.04,-162.02 -539.97,-368.3 -88.41,-415.4 535.79,-219.18 563.5,-213.57l38.89 -148.93c-583.17,-300.87 -1117.38,325.66 -602.57,664.96 195.64,128.94 520.76,128.89 464.01,439.18 -52.03,284.43 -436.2,184.06 -653.3,108.57l0.02 0.03z"/>
   <path class="fil2" d="M27096.49 5156.79l-40.04 152.67c178.47,132.92 541.87,126.79 728.2,0.52 190.05,-128.8 236.19,-428.56 54.25,-615.84 -149.55,-153.97 -496.97,-183 -548.18,-361.52 -42.6,-148.44 29.84,-250.09 144.45,-283.61 185.36,-54.2 279.96,30.84 414.15,40.09l47.52 -156.39c-838.73,-228.3 -1009.61,438.89 -624.43,670.89 185.26,111.57 511.34,141.05 481,421.12 -40.13,370.2 -562.85,160.65 -656.91,132.05l-0.02 0.03z"/>
   <polygon class="fil2" points="20685.53,8033.06 20877.48,8036.52 20878.81,7370 21441.72,7359.41 21439.61,7204.61 20879.24,7201.16 20878.11,6706.64 21479.4,6707.2 21489.49,6552.09 20689.49,6546.26 "/>
   <polygon class="fil2" points="25874.91,4054.22 26324.73,4060.48 26324.41,5378.23 26521.41,5387.37 26521.52,4063.82 26966.15,4059.64 26975.72,3897.91 25875.13,3897.45 "/>
   <path class="fil2" d="M19642.8 8036.71c138.04,-3.03 275.64,-1.81 413.19,-1.76 67.61,0.03 134.83,0.19 202.4,0.95 88.71,1.01 149.9,7.33 214.08,-27.99 0,-184.76 38.83,-138.2 -290.2,-135.09 -112.48,1.06 -228.25,6.32 -339.55,-5.13l-6.73 -1321.98 -190.13 -0.3 -3.07 1491.33 0 -0.03z"/>
   <polygon class="fil2" points="24633.38,8027.01 25462.02,8035.47 25464.53,7873.47 24834.78,7872.95 24824.77,6549.35 24635.86,6548.81 "/>
   <polygon class="fil2" points="25514.65,5379.88 25706.62,5384.41 25706.21,3900.9 25518.47,3898.05 "/>
  </g>
 </g>
</svg>
