<?xml version="1.0" encoding="UTF-8"?>
<!DOCTYPE svg PUBLIC "-//W3C//DTD SVG 1.1//EN" "http://www.w3.org/Graphics/SVG/1.1/DTD/svg11.dtd">
<!-- Creator: CorelDRAW -->
<svg xmlns="http://www.w3.org/2000/svg" xml:space="preserve" width="14.4869in" height="5.26587in" version="1.1" style="shape-rendering:geometricPrecision; text-rendering:geometricPrecision; image-rendering:optimizeQuality; fill-rule:evenodd; clip-rule:evenodd"
viewBox="0 0 10140.32 3685.94"
 xmlns:xlink="http://www.w3.org/1999/xlink"
 xmlns:xodm="http://www.corel.com/coreldraw/odm/2003">
 <defs>
  <style type="text/css">
   <![CDATA[
    .fil0 {fill:#179FDB}
    .fil2 {fill:#393184}
    .fil1 {fill:white}
   ]]>
  </style>
 </defs>
 <g id="Layer_x0020_1">
  <metadata id="CorelCorpID_0Corel-Layer"/>
  <path class="fil0" d="M890.33 1465.84c0,-30.35 11.03,-35.4 30.27,-50.74l1379.66 -1088.5c25.82,10.88 150.54,111.72 182.42,136.17 63.33,48.59 120.11,94.24 179.11,140.08 120.33,93.48 236.42,183.27 354.65,277.2 86.9,69.05 639.15,488.05 708.93,552.92l-1.62 2056.19 -2833 -1.66 -0.42 -2021.66 0 -0.01zm1418.45 -1465.84l-7.88 0 -427.36 341.76c-49.52,38.41 -96.76,74.91 -145.71,114.95 -249.63,204.21 -607.92,483.15 -863.02,681.13l-829.55 655.67c-8.05,6.54 -8.41,5.96 -17.82,14.6 -1.45,1.32 -5.64,5.35 -7,6.74 -6.87,7.01 -4.65,4.4 -10.44,11.73l339.47 0.02c58.47,0.52 57.23,4.21 93.26,-26.48 26.18,-22.29 231.51,-186.73 261.51,-201.6l-0.08 2085.17 3225.69 2.24 1.07 -2097.92c28.09,13.22 232.26,178.62 259.88,199.44 24.15,18.21 36.2,37.18 73.64,39.4 35.66,2.12 80.92,-0.31 117.7,-0.31 78.4,0 156.81,0.01 235.21,-0.01l-675.37 -539.28c-17.09,-16.02 -8.95,-2.75 -17.26,-23.36l-0.14 -446.76 -191.2 -0.91 -1.48 301.31 -1413.12 -1117.53 0.01 -0.01z"/>
  <path class="fil1" d="M2986.78 1172.75c-196.05,3.84 -568.2,85.56 -709.15,172.58 -202.9,125.25 -254.05,426.04 -95.1,590.23 159.61,164.87 481.84,109.95 597.69,-87.45 87.6,-149.25 193.01,-498.23 206.57,-675.36l-0 0z"/>
  <path class="fil2" d="M2986.78 1172.75c-13.56,177.13 -118.97,526.1 -206.57,675.36 -115.85,197.4 -438.08,252.32 -597.69,87.45 -158.94,-164.18 -107.79,-464.97 95.1,-590.23 140.95,-87.01 513.1,-168.74 709.15,-172.58l0 0zm-935.25 872.92c-46.38,84.29 -70.21,165.61 -69.31,280.35 0.57,72.27 -2.23,49.19 71.6,103.03 34.21,24.95 74.81,54.86 111.67,75.02 -20.87,-66.09 -45.73,-106.46 -52.67,-185.94 -5.31,-60.86 2.28,-155.18 19.5,-211.42 24.67,9.02 51.52,27.97 81.73,38.33 31.95,10.95 70.13,19.87 106.98,23.35 204.38,19.37 398.13,-86.9 492.99,-267.23 93.96,-178.62 213.57,-583.16 231.11,-787.64 -253.98,11.94 -677.42,100.02 -862.49,208.49 -198.65,116.43 -314.08,409.74 -184.8,641.75 16.32,29.3 43.52,58.78 53.7,81.91l0 -0z"/>
  <path class="fil2" d="M2007.95 2916.7c51.67,-4 117.32,-4.68 113.42,60.48 -3.33,55.5 -59.43,56.88 -113.37,53.35l-0.04 -113.83 -0 -0zm150.75 153.42c77.94,-62.11 67.49,-144.06 27.42,-186.97 -51.96,-55.65 -181,-45.32 -270.6,-43.15l-0.18 432.63 92.69 0.02 0.19 -165.72 44.64 0.26c20.15,22.53 91.69,135.91 103.26,165.24l102.26 0.48c-20.44,-51.94 -90.11,-131.88 -120.67,-184.85l21 -17.93 -0.01 -0z"/>
  <path class="fil2" d="M1454.69 2840.82c-2.41,216.68 -53.41,442.24 181.33,437.75 226.73,-4.34 174.9,-220.23 173.7,-438.23l-91.6 -0.96c-0.29,76.36 -0.08,152.79 0.03,229.15 0.1,74.3 -2.33,134.91 -88.84,132.84 -84.11,-2.02 -83.23,-63.24 -83.09,-139.38 0.13,-74.17 0.14,-148.37 0,-222.66l-91.52 1.48 0 0.01z"/>
  <path class="fil2" d="M3025.27 2916.71l52.6 175.25 -109.54 -1.56 56.94 -173.69zm-110.8 355.66c4.68,-26.63 21.07,-82.83 32.85,-103.1l153.31 -0.18 33.64 102.19 95.9 1.57c-11.46,-48.21 -137.78,-409.17 -154.43,-433.97l-110.11 0.37 -150.83 433.32 99.7 -0.2 -0.01 0.01z"/>
  <path class="fil2" d="M1532.35 2160.68c8.93,69.93 51.78,202.7 85.98,254.43 41.89,63.37 156.76,118.95 231.97,46.91 74.13,-71.01 21.3,-193.97 -42.05,-230.44 -62.25,-35.83 -190.01,-67.52 -275.9,-70.91l0 0.01z"/>
  <path class="fil2" d="M2852.66 2274.16c-77.4,-7.13 -257.51,12.14 -327.79,35.13 -49.31,16.13 -82.11,38.11 -113.83,68.51 -194.55,186.49 232.3,206.1 369.29,10.91 23.13,-32.95 55.8,-76.62 72.33,-114.54z"/>
  <path class="fil2" d="M1168.2 2917.63c58.85,-8.02 118.53,-2 114.27,65.42 -3.55,56.12 -60.37,64.82 -113.97,58.87l-0.3 -124.3 -0 0zm0.18 202.94c66.02,-8.61 114.25,3.68 162.43,-37.93 34.26,-29.59 54.74,-83.83 40.87,-147.56 -23.72,-108.92 -177.2,-104.65 -294.82,-94.05l-0.04 431.1 91.7 0.75 -0.14 -152.31 -0.01 -0z"/>
  <path class="fil2" d="M3537.48 2866.54c-52.07,-38.08 -161.22,-45.9 -218.83,-11 -59.6,36.09 -74.32,125.13 -23.13,181.95 38.25,42.45 151.33,68.39 155.45,116.94 8.06,95.04 -179.98,17.81 -191.3,16.09l-0.28 81c92.61,49.4 260.65,36.97 280.16,-72.42 26.87,-150.63 -150.01,-145.28 -183.51,-214.83 -2.74,-92 104.62,-41.27 155.79,-30.58l25.64 -67.13 0.01 -0.01z"/>
  <polygon class="fil2" points="2477.06,2916.11 2591.66,2918.85 2591.55,3272.98 2683.85,3271.25 2683.73,2916.41 2800.49,2915.66 2801.06,2839.73 2473.81,2839.37 "/>
  <polygon class="fil2" points="2318.53,3272.64 2407.83,3271.7 2407.92,2840.31 2315.98,2842.6 "/>
  <g id="_105553195526816">
   <path class="fil2" d="M4977.06 2657.13l67.98 -0.8 99.63 -377.46c6.44,-20.38 1.4,-10.05 10.54,-25.08l91.24 401.84 69.11 1.83 137.66 -491.07 -64.57 -1.78 -104.74 407.14 -94.74 -407.71 -67.31 1.05 -107.42 410.48 -94.2 -410.57 -65.98 -0.34 122.78 492.48 -0.01 0.01z"/>
   <path class="fil2" d="M9804.37 1544.18c34.73,26.53 83.51,92.16 116.25,127.68 1.22,1.33 2.98,3.01 4.19,4.37l15.97 19.98c-38.86,45.76 -128.31,64.74 -174.54,13.16 -37.57,-41.91 -35.7,-123.52 38.14,-165.19l-0.01 0zm21.08 -62.21c-12.43,-26.4 -35.88,-58.49 -28.77,-101.53 5.81,-35.13 36.79,-65.88 80.58,-51.83 48.12,15.42 63.58,115.91 -51.82,153.36l0 0zm-51.69 22.23c-33.11,29.7 -65.33,41.33 -84.43,93.83 -59.27,162.87 149.87,249.51 282.01,139.22 52.56,28.94 36.41,52.19 122.24,41.25l-72.09 -82.52c28.57,-66.51 53.62,-91.21 65.13,-183.26l-58.65 -1.91 -48.27 139.33c-43.39,-36.07 -68.89,-88.46 -115.24,-127.44 24.73,-33.34 84.9,-43.49 101.48,-107.35 16.97,-65.36 -19.22,-115.3 -68.13,-129.95 -78.61,-23.53 -229.94,38.39 -124.04,218.79l-0.01 0.01z"/>
   <path class="fil2" d="M6633.21 1779.43l60.23 2.07 -2.55 -405.6c7.79,9.8 2.7,1.89 14.42,20.97 37.59,61.15 209,375.78 243.79,384.24l53.86 0.04 -0.2 -493.44 -58.72 1.83 1.93 397.61c-19.37,-23.74 -39.29,-72.5 -55.08,-99.67l-187.27 -297 -69.15 -1.87 -1.26 490.82 -0.01 -0.02z"/>
   <path class="fil2" d="M7177.84 1726.98c-1.34,-110.68 0.93,-221.45 -0.82,-332.12 -0.62,-39.33 -21.88,-70.93 105.98,-58.07 273.92,27.56 204.66,470.29 -105.15,390.18l0 0.01zm-64.44 -433.25l-0.02 486.5c221.46,12 394.81,-12.24 404.7,-242.35 11.99,-278.8 -244.25,-257.12 -404.68,-244.15l0 0z"/>
   <path class="fil2" d="M5683.61 2212.4c212.89,-52.13 253.31,359.87 58.72,396.81 -109.6,20.8 -175.57,-66.35 -186.23,-162.31 -13.55,-121.92 31.64,-211.01 127.52,-234.48l-0.01 -0.01zm-25.54 452.26l101.63 0c72.36,-45.03 184.18,-67.76 176.33,-274.84 -11.6,-306.21 -412.03,-313.07 -447.67,-17.39 -26.16,216.97 103.64,252.02 169.7,292.22l0 0z"/>
   <polygon class="fil2" points="8490.09,2657.48 8554.33,2657.12 8555.07,2427.58 8789.43,2426.22 8792.29,2657.51 8856.69,2654.82 8856.86,2168.3 8792.95,2163.66 8791.6,2368.4 8556.4,2369.69 8554.22,2164.36 8490.84,2164.17 "/>
   <polygon class="fil2" points="6018.67,2657.53 6082.11,2656.84 6083.31,2427.3 6318.07,2426.29 6320.85,2657.43 6385.03,2657.16 6385.14,2164.19 6321.38,2164.42 6320.18,2368.13 6084.8,2369.75 6082.31,2164.71 6019.37,2164.07 "/>
   <polygon class="fil2" points="7600.6,1780.18 7664.36,1779.63 7664.25,1549.91 7902.39,1550.08 7902.4,1779.2 7967.11,1780.77 7967,1289.47 7903.58,1288.81 7901.8,1493.98 7666.99,1493.63 7663.92,1290.87 7602.15,1288.36 "/>
   <path class="fil2" d="M5340.91 1757.77l2.43 -233.08 -161.18 -2.46 -1.44 48.67 97.64 2.58 2.87 148.48c-165.79,38.27 -285.55,-39.45 -273.65,-208.34 11.82,-167.7 146.84,-195.08 308.18,-157.36l12.23 -50.75c-164.23,-66.66 -394.05,7.33 -388.69,240.51 5.67,246.75 253.13,276 401.61,211.74l0 -0.01z"/>
   <polygon class="fil2" points="7669.28,2654.55 7732.01,2656.65 7732.4,2426.16 7971,2426.17 7970.79,2653.56 8035.02,2657.44 8035.56,2164.99 7971.47,2165.89 7970.06,2370.12 7735.41,2369.86 7731.95,2165.96 7670.12,2165.28 "/>
   <path class="fil2" d="M9528.02 2664.65l85.07 0c50.94,-27.44 127.17,-30.92 141.46,-175.27 8.24,-83.22 6.05,-239.65 0.99,-324.91l-62.94 -0.32c-6.88,206.78 44.64,441.5 -113.9,447.72 -169.52,6.65 -113.72,-251.19 -122.26,-447.9l-62.66 0.7c-6.26,98.55 -22.03,359.93 38.25,438.06 31.38,40.67 47.77,35.59 96,61.93l-0.01 0z"/>
   <path class="fil2" d="M6521.57 1289.39l-62.09 -0.49c-11.98,202 48.72,447 -119.86,446.95 -169.36,-0.05 -105.42,-303.48 -117.41,-447.04l-61.96 0.9c-4.07,87.64 -7.51,252.62 1.74,333.55 26.42,231.01 328.9,218.61 357.48,1.31 9.55,-72.54 7.97,-258.49 2.09,-335.18l-0 -0z"/>
   <path class="fil2" d="M7331.68 2664.65l85.03 0c43.3,-23.83 71.01,-25.12 98.42,-60.24 23.39,-29.97 37.84,-70.63 41.76,-115.77 7.47,-86.12 5.78,-235.89 0.72,-323.4l-62.36 0.36c-7.94,198.05 46.29,447.37 -120.36,446.42 -160.06,-0.91 -108.59,-257.9 -115.93,-447.93l-63.33 2.18c-3.41,95.12 -5.18,220.65 0.28,313.01 2.72,45.83 12.56,83.27 35.9,119.5 31.89,49.49 47.31,38.15 99.87,65.87z"/>
   <path class="fil2" d="M9134.63 2229.66l70.93 222.43 -144.15 -2.09 73.22 -220.34 0 0zm-205.08 427.19l67.46 0.15 49.05 -153.28 165.57 -1.89c37.91,32.76 35.63,112.68 66.79,153.93l62.01 1.74c-10.63,-47.76 -153.47,-467.88 -170.55,-491.89l-73.31 -0.55 -167.01 491.8 -0.01 -0.01z"/>
   <path class="fil2" d="M5440.54 1778.08c45.4,6.66 93.36,3 139.38,3l116.28 -1.9c15.73,-3.45 13.21,-3.04 21.23,-7.82l0.01 -33.39c-29.33,-19.63 -161.01,-10.53 -210.85,-11.07l-2.07 -176.71 190.86 -0.58 -0.88 -51 -190.61 -1.36 -0.23 -155.15 198.87 -0.14 4.19 -53.45 -265.12 0.33 -1.04 489.27 -0.01 -0.01z"/>
   <polygon class="fil2" points="8077.29,1779.59 8354.45,1781.2 8354.52,1726.91 8143.66,1727.09 8139.99,1550.02 8329.37,1549.88 8331.96,1499.81 8140.47,1497.19 8140.31,1341.75 8339.59,1341.91 8343.01,1289.29 8078.67,1288.59 "/>
   <path class="fil2" d="M9928.42 2664.65l83.79 0c64.84,-34.81 112.07,-30.03 125.72,-117.9 30.97,-199.41 -250.01,-141.53 -218.06,-281.38 17.79,-77.93 120.38,-53.04 184.9,-34.81l14.46 -49.44c-177.54,-100.95 -378.24,98.38 -200.35,218.82 59.27,40.13 172.92,43.48 153.23,146.51 -19.46,101.94 -145.13,53.97 -215.87,35.6l-13.09 48.86c33.32,24.14 53.32,18.66 85.28,33.75l-0 -0.01z"/>
   <path class="fil2" d="M5789.38 1705.46l-12.93 56.39c332.27,98.2 331.8,-151.68 254.12,-215.75 -50.55,-41.69 -164.02,-53.58 -178.55,-121.79 -29.23,-137.36 177.17,-72.48 186.33,-70.62l12.86 -49.25c-192.84,-99.49 -369.48,107.68 -199.25,219.88 64.69,42.63 172.2,42.62 153.43,145.22 -17.2,94.05 -144.24,60.86 -216.03,35.9l0.01 0.01z"/>
   <path class="fil2" d="M8959.92 1705.18l-13.24 50.48c59.01,43.95 179.18,41.93 240.79,0.17 62.84,-42.59 78.1,-141.71 17.94,-203.64 -49.45,-50.91 -164.33,-60.51 -181.26,-119.54 -14.08,-49.09 9.87,-82.7 47.77,-93.78 61.29,-17.92 92.57,10.2 136.95,13.26l15.71 -51.71c-277.34,-75.49 -333.85,145.13 -206.48,221.84 61.26,36.89 169.08,46.64 159.05,139.25 -13.27,122.41 -186.12,53.12 -217.22,43.67l-0.01 0.01z"/>
   <polygon class="fil2" points="6840.03,2656.27 6903.5,2657.41 6903.94,2437.02 7090.07,2433.52 7089.37,2382.33 6904.08,2381.19 6903.71,2217.66 7102.53,2217.85 7105.87,2166.56 6841.34,2164.63 "/>
   <polygon class="fil2" points="8555.98,1340.6 8704.73,1342.67 8704.62,1778.4 8769.76,1781.43 8769.79,1343.77 8916.82,1342.39 8919.98,1288.91 8556.06,1288.76 "/>
   <path class="fil2" d="M6495.23 2657.48c45.65,-1 91.14,-0.6 136.63,-0.58 22.35,0.01 44.58,0.06 66.93,0.31 29.33,0.33 49.57,2.42 70.79,-9.26 0,-61.09 12.84,-45.7 -95.96,-44.67 -37.19,0.35 -75.48,2.09 -112.28,-1.69l-2.22 -437.13 -62.87 -0.1 -1.01 493.13 0 -0.01z"/>
   <polygon class="fil2" points="8145.45,2654.27 8419.45,2657.07 8420.28,2603.5 8212.05,2603.33 8208.74,2165.65 8146.27,2165.48 "/>
   <polygon class="fil2" points="8436.86,1778.95 8500.33,1780.45 8500.2,1289.9 8438.12,1288.96 "/>
  </g>
 </g>
</svg>
