<?xml version="1.0" encoding="UTF-8"?>
<!DOCTYPE svg PUBLIC "-//W3C//DTD SVG 1.1//EN" "http://www.w3.org/Graphics/SVG/1.1/DTD/svg11.dtd">
<!-- Creator: CorelDRAW -->
<svg xmlns="http://www.w3.org/2000/svg" xml:space="preserve" width="6.58223in" height="7.08291in" version="1.1" style="shape-rendering:geometricPrecision; text-rendering:geometricPrecision; image-rendering:optimizeQuality; fill-rule:evenodd; clip-rule:evenodd"
viewBox="0 0 2870.48 3088.83"
 xmlns:xlink="http://www.w3.org/1999/xlink"
 xmlns:xodm="http://www.corel.com/coreldraw/odm/2003">
 <defs>
  <style type="text/css">
   <![CDATA[
    .fil0 {fill:none}
    .fil3 {fill:#BAB7DB}
    .fil1 {fill:#75CFF5}
    .fil2 {fill:white}
   ]]>
  </style>
 </defs>
 <g id="Layer_x0020_1">
  <metadata id="CorelCorpID_0Corel-Layer"/>
  <path class="fil0" d="M554.69 913.26c0,-18.91 6.87,-22.05 18.86,-31.61l859.56 -678.16c16.09,6.77 93.79,69.61 113.65,84.84 39.46,30.27 74.83,58.71 111.59,87.27 74.97,58.24 147.29,114.18 220.95,172.7 54.14,43.02 398.21,304.06 441.68,344.48l-1.01 1281.06 -1765.02 -1.03 -0.26 -1259.54 0 -0.01 0 -0zm883.73 -913.26l-4.91 0 -266.25 212.93c-30.85,23.93 -60.28,46.67 -90.78,71.61 -155.52,127.23 -378.75,301.01 -537.68,424.36l-516.83 408.5c-5.02,4.07 -5.24,3.71 -11.1,9.1 -0.9,0.82 -3.51,3.33 -4.36,4.2 -4.28,4.37 -2.9,2.74 -6.51,7.31l211.5 0.01c36.43,0.32 35.65,2.62 58.1,-16.5 16.31,-13.89 144.23,-116.34 162.92,-125.6l-0.05 1299.11 2009.68 1.4 0.67 -1307.05c17.5,8.23 144.71,111.28 161.91,124.25 15.05,11.34 22.56,23.16 45.88,24.55 22.22,1.32 50.41,-0.2 73.33,-0.2 48.85,0 97.7,0.01 146.54,-0.01l-420.77 -335.98c-10.65,-9.98 -5.57,-1.71 -10.75,-14.55l-0.09 -278.34 -119.12 -0.57 -0.92 187.72 -880.41 -696.25 0.01 -0.01 -0 -0z"/>
  <path id="_1" class="fil1" d="M554.69 913.26c0,-18.91 6.87,-22.05 18.86,-31.61l859.56 -678.16c16.09,6.77 93.79,69.61 113.65,84.84 39.46,30.27 74.83,58.71 111.59,87.27 74.97,58.24 147.29,114.18 220.95,172.7 54.14,43.02 398.21,304.06 441.68,344.48l-1.01 1281.06 -1765.02 -1.03 -0.26 -1259.54 0 -0.01 0 -0zm883.73 -913.26l-4.91 0 -266.25 212.93c-30.85,23.93 -60.28,46.67 -90.78,71.61 -155.52,127.23 -378.75,301.01 -537.68,424.36l-516.83 408.5c-5.02,4.07 -5.24,3.71 -11.1,9.1 -0.9,0.82 -3.51,3.33 -4.36,4.2 -4.28,4.37 -2.9,2.74 -6.51,7.31l211.5 0.01c36.43,0.32 35.65,2.62 58.1,-16.5 16.31,-13.89 144.23,-116.34 162.92,-125.6l-0.05 1299.11 2009.68 1.4 0.67 -1307.05c17.5,8.23 144.71,111.28 161.91,124.25 15.05,11.34 22.56,23.16 45.88,24.55 22.22,1.32 50.41,-0.2 73.33,-0.2 48.85,0 97.7,0.01 146.54,-0.01l-420.77 -335.98c-10.65,-9.98 -5.57,-1.71 -10.75,-14.55l-0.09 -278.34 -119.12 -0.57 -0.92 187.72 -880.41 -696.25 0.01 -0.01 -0 -0z"/>
  <path class="fil0" d="M1860.83 730.65c-122.14,2.39 -354,53.31 -441.82,107.52 -126.41,78.04 -158.28,265.43 -59.25,367.72 99.44,102.72 300.19,68.5 372.37,-54.49 54.57,-92.99 120.25,-310.41 128.69,-420.76l0 0 0 0z"/>
  <path id="_1_0" class="fil2" d="M1860.83 730.65c-122.14,2.39 -354,53.31 -441.82,107.52 -126.41,78.04 -158.28,265.43 -59.25,367.72 99.44,102.72 300.19,68.5 372.37,-54.49 54.57,-92.99 120.25,-310.41 128.69,-420.76l0 0 0 0z"/>
  <path class="fil0" d="M1860.83 730.65c-8.45,110.35 -74.12,327.77 -128.69,420.76 -72.18,122.99 -272.93,157.21 -372.37,54.49 -99.02,-102.29 -67.16,-289.69 59.25,-367.72 87.81,-54.21 319.68,-105.13 441.82,-107.52l0 0 0 -0zm-582.68 543.85c-28.9,52.52 -43.74,103.17 -43.18,174.66 0.35,45.03 -1.39,30.65 44.61,64.19 21.31,15.54 46.61,34.18 69.57,46.74 -13,-41.18 -28.49,-66.33 -32.82,-115.85 -3.31,-37.91 1.42,-96.68 12.15,-131.72 15.37,5.62 32.1,17.42 50.92,23.88 19.91,6.82 43.69,12.38 66.65,14.55 127.33,12.07 248.04,-54.14 307.14,-166.49 58.53,-111.29 133.06,-363.32 143.99,-490.72 -158.24,7.44 -422.05,62.32 -537.35,129.89 -123.76,72.54 -195.68,255.28 -115.13,399.82 10.17,18.25 27.12,36.62 33.46,51.03l0 0 0 0z"/>
  <path id="_1_1" class="fil3" d="M1860.83 730.65c-8.45,110.35 -74.12,327.77 -128.69,420.76 -72.18,122.99 -272.93,157.21 -372.37,54.49 -99.02,-102.29 -67.16,-289.69 59.25,-367.72 87.81,-54.21 319.68,-105.13 441.82,-107.52l0 0 0 -0zm-582.68 543.85c-28.9,52.52 -43.74,103.17 -43.18,174.66 0.35,45.03 -1.39,30.65 44.61,64.19 21.31,15.54 46.61,34.18 69.57,46.74 -13,-41.18 -28.49,-66.33 -32.82,-115.85 -3.31,-37.91 1.42,-96.68 12.15,-131.72 15.37,5.62 32.1,17.42 50.92,23.88 19.91,6.82 43.69,12.38 66.65,14.55 127.33,12.07 248.04,-54.14 307.14,-166.49 58.53,-111.29 133.06,-363.32 143.99,-490.72 -158.24,7.44 -422.05,62.32 -537.35,129.89 -123.76,72.54 -195.68,255.28 -115.13,399.82 10.17,18.25 27.12,36.62 33.46,51.03l0 0 0 0z"/>
  <path class="fil0" d="M1251 1817.18c32.19,-2.49 73.1,-2.92 70.66,37.68 -2.07,34.58 -37.03,35.44 -70.64,33.24l-0.03 -70.92 0 0zm93.92 95.58c48.56,-38.69 42.05,-89.75 17.08,-116.49 -32.37,-34.67 -112.77,-28.23 -168.59,-26.88l-0.11 269.54 57.75 0.01 0.12 -103.25 27.81 0.16c12.55,14.04 57.13,84.67 64.33,102.95l63.71 0.3c-12.73,-32.36 -56.14,-82.16 -75.18,-115.17l13.08 -11.17 -0.01 0 -0 -0.01z"/>
  <path id="_1_2" class="fil3" d="M1251 1817.18c32.19,-2.49 73.1,-2.92 70.66,37.68 -2.07,34.58 -37.03,35.44 -70.64,33.24l-0.03 -70.92 0 0zm93.92 95.58c48.56,-38.69 42.05,-89.75 17.08,-116.49 -32.37,-34.67 -112.77,-28.23 -168.59,-26.88l-0.11 269.54 57.75 0.01 0.12 -103.25 27.81 0.16c12.55,14.04 57.13,84.67 64.33,102.95l63.71 0.3c-12.73,-32.36 -56.14,-82.16 -75.18,-115.17l13.08 -11.17 -0.01 0 -0 -0.01z"/>
  <path class="fil0" d="M906.3 1769.9c-1.5,134.99 -33.27,275.53 112.97,272.73 141.26,-2.71 108.97,-137.21 108.22,-273.03l-57.07 -0.6c-0.18,47.57 -0.05,95.19 0.02,142.77 0.06,46.29 -1.45,84.05 -55.35,82.76 -52.4,-1.26 -51.85,-39.4 -51.77,-86.83 0.08,-46.21 0.09,-92.44 0,-138.72l-57.02 0.92 0 0.01 0 -0.01z"/>
  <path id="_1_3" class="fil3" d="M906.3 1769.9c-1.5,134.99 -33.27,275.53 112.97,272.73 141.26,-2.71 108.97,-137.21 108.22,-273.03l-57.07 -0.6c-0.18,47.57 -0.05,95.19 0.02,142.77 0.06,46.29 -1.45,84.05 -55.35,82.76 -52.4,-1.26 -51.85,-39.4 -51.77,-86.83 0.08,-46.21 0.09,-92.44 0,-138.72l-57.02 0.92 0 0.01 0 -0.01z"/>
  <path class="fil0" d="M1884.8 1817.18l32.77 109.18 -68.25 -0.97 35.48 -108.22 0 0zm-69.04 221.59c2.92,-16.6 13.12,-51.61 20.47,-64.24l95.51 -0.11 20.96 63.66 59.75 0.98c-7.14,-30.03 -85.84,-254.92 -96.21,-270.37l-68.6 0.23 -93.97 269.97 62.11 -0.12 -0.01 0.01 0 -0.01z"/>
  <path id="_1_4" class="fil3" d="M1884.8 1817.18l32.77 109.18 -68.25 -0.97 35.48 -108.22 0 0zm-69.04 221.59c2.92,-16.6 13.12,-51.61 20.47,-64.24l95.51 -0.11 20.96 63.66 59.75 0.98c-7.14,-30.03 -85.84,-254.92 -96.21,-270.37l-68.6 0.23 -93.97 269.97 62.11 -0.12 -0.01 0.01 0 -0.01z"/>
  <path class="fil0" d="M954.69 1346.16c5.56,43.57 32.26,126.28 53.57,158.51 26.1,39.48 97.66,74.11 144.52,29.23 46.18,-44.24 13.27,-120.84 -26.2,-143.57 -38.78,-22.33 -118.38,-42.07 -171.89,-44.18l0 0.01 0 0.01z"/>
  <path id="_1_5" class="fil3" d="M954.69 1346.16c5.56,43.57 32.26,126.28 53.57,158.51 26.1,39.48 97.66,74.11 144.52,29.23 46.18,-44.24 13.27,-120.84 -26.2,-143.57 -38.78,-22.33 -118.38,-42.07 -171.89,-44.18l0 0.01 0 0.01z"/>
  <path class="fil0" d="M1777.27 1416.85c-48.22,-4.44 -160.43,7.56 -204.23,21.89 -30.72,10.05 -51.16,23.74 -70.92,42.68 -121.21,116.19 144.73,128.4 230.07,6.8 14.41,-20.53 34.76,-47.74 45.07,-71.36l0 0z"/>
  <path id="_1_6" class="fil3" d="M1777.27 1416.85c-48.22,-4.44 -160.43,7.56 -204.23,21.89 -30.72,10.05 -51.16,23.74 -70.92,42.68 -121.21,116.19 144.73,128.4 230.07,6.8 14.41,-20.53 34.76,-47.74 45.07,-71.36l0 0z"/>
  <path class="fil0" d="M727.81 1817.76c36.67,-5 73.85,-1.24 71.19,40.76 -2.21,34.96 -37.61,40.38 -71,36.68l-0.19 -77.44 0 0 -0.01 0zm0.11 126.44c41.13,-5.37 71.18,2.29 101.2,-23.63 21.35,-18.44 34.11,-52.23 25.46,-91.94 -14.78,-67.86 -110.4,-65.2 -183.68,-58.59l-0.02 268.59 57.14 0.47 -0.09 -94.9 -0.01 0z"/>
  <path id="_1_7" class="fil3" d="M727.81 1817.76c36.67,-5 73.85,-1.24 71.19,40.76 -2.21,34.96 -37.61,40.38 -71,36.68l-0.19 -77.44 0 0 -0.01 0zm0.11 126.44c41.13,-5.37 71.18,2.29 101.2,-23.63 21.35,-18.44 34.11,-52.23 25.46,-91.94 -14.78,-67.86 -110.4,-65.2 -183.68,-58.59l-0.02 268.59 57.14 0.47 -0.09 -94.9 -0.01 0z"/>
  <path class="fil0" d="M2203.93 1785.92c-32.44,-23.72 -100.44,-28.6 -136.33,-6.86 -37.14,22.48 -46.3,77.95 -14.41,113.36 23.83,26.44 94.28,42.61 96.85,72.86 5.02,59.21 -112.14,11.09 -119.19,10.02l-0.18 50.46c57.7,30.78 162.39,23.04 174.55,-45.12 16.74,-93.84 -93.46,-90.51 -114.33,-133.85 -1.7,-57.32 65.18,-25.71 97.06,-19.05l15.98 -41.83 0.01 -0.01 0 0.01z"/>
  <path id="_1_8" class="fil3" d="M2203.93 1785.92c-32.44,-23.72 -100.44,-28.6 -136.33,-6.86 -37.14,22.48 -46.3,77.95 -14.41,113.36 23.83,26.44 94.28,42.61 96.85,72.86 5.02,59.21 -112.14,11.09 -119.19,10.02l-0.18 50.46c57.7,30.78 162.39,23.04 174.55,-45.12 16.74,-93.84 -93.46,-90.51 -114.33,-133.85 -1.7,-57.32 65.18,-25.71 97.06,-19.05l15.98 -41.83 0.01 -0.01 0 0.01z"/>
  <path class="fil3" d="M210.63 3085.17l33.05 -0.39 48.44 -183.51c3.13,-9.91 0.68,-4.88 5.12,-12.2l44.36 195.36 33.6 0.89 66.93 -238.74 -31.39 -0.87 -50.93 197.94 -46.06 -198.22 -32.73 0.51 -52.22 199.56 -45.8 -199.61 -32.08 -0.17 59.7 239.43 0 0.01 -0.01 0.01z"/>
  <path id="_1_9" class="fil3" d="M210.63 3085.17l33.05 -0.39 48.44 -183.51c3.13,-9.91 0.68,-4.88 5.12,-12.2l44.36 195.36 33.6 0.89 66.93 -238.74 -31.39 -0.87 -50.93 197.94 -46.06 -198.22 -32.73 0.51 -52.22 199.56 -45.8 -199.61 -32.08 -0.17 59.7 239.43 0 0.01 -0.01 0.01z"/>
  <polygon class="fil0" points="1543.26,1816.81 1614.66,1818.51 1614.59,2039.14 1672.1,2038.06 1672.02,1816.99 1744.76,1816.53 1745.12,1769.22 1541.23,1768.99 "/>
  <polygon id="_1_10" class="fil3" points="1543.26,1816.81 1614.66,1818.51 1614.59,2039.14 1672.1,2038.06 1672.02,1816.99 1744.76,1816.53 1745.12,1769.22 1541.23,1768.99 "/>
  <path class="fil3" d="M2557.53 2544.09c16.89,12.89 40.6,44.8 56.52,62.07 0.59,0.64 1.45,1.46 2.03,2.13l7.76 9.72c-18.89,22.25 -62.38,31.47 -84.86,6.4 -18.26,-20.38 -17.36,-60.05 18.54,-80.31l-0.01 0 0 -0.01zm10.25 -30.24c-6.05,-12.83 -17.44,-28.44 -13.99,-49.36 2.83,-17.08 17.88,-32.03 39.18,-25.2 23.39,7.5 30.91,56.35 -25.19,74.56l0 0 0 0zm-25.13 10.8c-16.1,14.44 -31.76,20.09 -41.05,45.62 -28.82,79.18 72.86,121.3 137.11,67.69 25.55,14.07 17.7,25.37 59.43,20.05l-35.05 -40.12c13.89,-32.34 26.07,-44.34 31.67,-89.09l-28.51 -0.93 -23.47 67.74c-21.09,-17.53 -33.49,-43.01 -56.02,-61.96 12.02,-16.21 41.28,-21.14 49.34,-52.19 8.25,-31.78 -9.35,-56.06 -33.12,-63.18 -38.21,-11.44 -111.79,18.66 -60.3,106.37l-0.01 0 -0 0z"/>
  <path id="_1_11" class="fil3" d="M2557.53 2544.09c16.89,12.89 40.6,44.8 56.52,62.07 0.59,0.64 1.45,1.46 2.03,2.13l7.76 9.72c-18.89,22.25 -62.38,31.47 -84.86,6.4 -18.26,-20.38 -17.36,-60.05 18.54,-80.31l-0.01 0 0 -0.01zm10.25 -30.24c-6.05,-12.83 -17.44,-28.44 -13.99,-49.36 2.83,-17.08 17.88,-32.03 39.18,-25.2 23.39,7.5 30.91,56.35 -25.19,74.56l0 0 0 0zm-25.13 10.8c-16.1,14.44 -31.76,20.09 -41.05,45.62 -28.82,79.18 72.86,121.3 137.11,67.69 25.55,14.07 17.7,25.37 59.43,20.05l-35.05 -40.12c13.89,-32.34 26.07,-44.34 31.67,-89.09l-28.51 -0.93 -23.47 67.74c-21.09,-17.53 -33.49,-43.01 -56.02,-61.96 12.02,-16.21 41.28,-21.14 49.34,-52.19 8.25,-31.78 -9.35,-56.06 -33.12,-63.18 -38.21,-11.44 -111.79,18.66 -60.3,106.37l-0.01 0 -0 0z"/>
  <path class="fil3" d="M1015.8 2658.45l29.29 1.01 -1.24 -197.19c3.78,4.76 1.31,0.92 7.01,10.2 18.28,29.73 101.61,182.69 118.52,186.8l26.19 0.02 -0.1 -239.9 -28.55 0.89 0.94 193.31c-9.42,-11.54 -19.1,-35.25 -26.78,-48.46l-91.04 -144.39 -33.62 -0.91 -0.62 238.62 -0.01 -0.01 0 0.01z"/>
  <path id="_1_12" class="fil3" d="M1015.8 2658.45l29.29 1.01 -1.24 -197.19c3.78,4.76 1.31,0.92 7.01,10.2 18.28,29.73 101.61,182.69 118.52,186.8l26.19 0.02 -0.1 -239.9 -28.55 0.89 0.94 193.31c-9.42,-11.54 -19.1,-35.25 -26.78,-48.46l-91.04 -144.39 -33.62 -0.91 -0.62 238.62 -0.01 -0.01 0 0.01z"/>
  <path class="fil3" d="M1280.59 2632.95c-0.65,-53.81 0.45,-107.67 -0.4,-161.47 -0.3,-19.12 -10.64,-34.48 51.52,-28.23 133.17,13.4 99.5,228.64 -51.12,189.69l0 0 0 0.01zm-31.33 -210.63l-0.01 236.52c107.67,5.84 191.94,-5.95 196.75,-117.83 5.83,-135.54 -118.75,-125 -196.74,-118.7l0 0 0 0.01z"/>
  <path id="_1_13" class="fil3" d="M1280.59 2632.95c-0.65,-53.81 0.45,-107.67 -0.4,-161.47 -0.3,-19.12 -10.64,-34.48 51.52,-28.23 133.17,13.4 99.5,228.64 -51.12,189.69l0 0 0 0.01zm-31.33 -210.63l-0.01 236.52c107.67,5.84 191.94,-5.95 196.75,-117.83 5.83,-135.54 -118.75,-125 -196.74,-118.7l0 0 0 0.01z"/>
  <path class="fil3" d="M554.13 2868.95c103.5,-25.34 123.15,174.96 28.55,192.92 -53.28,10.11 -85.35,-32.26 -90.54,-78.91 -6.59,-59.27 15.38,-102.59 62,-114l-0.01 -0.01 0 -0zm-12.41 219.87l49.41 0c35.18,-21.89 89.54,-32.94 85.73,-133.62 -5.64,-148.87 -200.32,-152.21 -217.64,-8.45 -12.72,105.49 50.39,122.53 82.5,142.07l0 0 0 0z"/>
  <path id="_1_14" class="fil3" d="M554.13 2868.95c103.5,-25.34 123.15,174.96 28.55,192.92 -53.28,10.11 -85.35,-32.26 -90.54,-78.91 -6.59,-59.27 15.38,-102.59 62,-114l-0.01 -0.01 0 -0zm-12.41 219.87l49.41 0c35.18,-21.89 89.54,-32.94 85.73,-133.62 -5.64,-148.87 -200.32,-152.21 -217.64,-8.45 -12.72,105.49 50.39,122.53 82.5,142.07l0 0 0 0z"/>
  <polygon class="fil3" points="1918.56,3085.34 1949.8,3085.17 1950.16,2973.57 2064.09,2972.91 2065.48,3085.35 2096.79,3084.05 2096.88,2847.51 2065.81,2845.26 2065.15,2944.8 1950.8,2945.42 1949.74,2845.6 1918.92,2845.5 "/>
  <polygon id="_1_15" class="fil3" points="1918.56,3085.34 1949.8,3085.17 1950.16,2973.57 2064.09,2972.91 2065.48,3085.35 2096.79,3084.05 2096.88,2847.51 2065.81,2845.26 2065.15,2944.8 1950.8,2945.42 1949.74,2845.6 1918.92,2845.5 "/>
  <polygon class="fil3" points="717.03,3085.37 747.87,3085.03 748.45,2973.43 862.59,2972.94 863.94,3085.32 895.15,3085.18 895.2,2845.52 864.2,2845.63 863.62,2944.67 749.18,2945.45 747.97,2845.77 717.37,2845.46 "/>
  <polygon id="_1_16" class="fil3" points="717.03,3085.37 747.87,3085.03 748.45,2973.43 862.59,2972.94 863.94,3085.32 895.15,3085.18 895.2,2845.52 864.2,2845.63 863.62,2944.67 749.18,2945.45 747.97,2845.77 717.37,2845.46 "/>
  <polygon class="fil3" points="1486.12,2658.82 1517.12,2658.55 1517.06,2546.87 1632.84,2546.95 1632.85,2658.35 1664.3,2659.11 1664.25,2420.25 1633.42,2419.93 1632.55,2519.68 1518.39,2519.51 1516.9,2420.93 1486.87,2419.71 "/>
  <polygon id="_1_17" class="fil3" points="1486.12,2658.82 1517.12,2658.55 1517.06,2546.87 1632.84,2546.95 1632.85,2658.35 1664.3,2659.11 1664.25,2420.25 1633.42,2419.93 1632.55,2519.68 1518.39,2519.51 1516.9,2420.93 1486.87,2419.71 "/>
  <path class="fil3" d="M387.52 2647.93l1.18 -113.31 -78.36 -1.2 -0.7 23.66 47.47 1.26 1.4 72.19c-80.61,18.6 -138.83,-19.18 -133.04,-101.29 5.75,-81.53 71.39,-94.84 149.83,-76.5l5.95 -24.67c-79.85,-32.41 -191.57,3.56 -188.97,116.93 2.76,119.97 123.06,134.18 195.25,102.94l0 -0.01 0 0.01z"/>
  <path id="_1_18" class="fil3" d="M387.52 2647.93l1.18 -113.31 -78.36 -1.2 -0.7 23.66 47.47 1.26 1.4 72.19c-80.61,18.6 -138.83,-19.18 -133.04,-101.29 5.75,-81.53 71.39,-94.84 149.83,-76.5l5.95 -24.67c-79.85,-32.41 -191.57,3.56 -188.97,116.93 2.76,119.97 123.06,134.18 195.25,102.94l0 -0.01 0 0.01z"/>
  <polygon class="fil3" points="1519.51,3083.92 1550,3084.94 1550.2,2972.88 1666.2,2972.88 1666.1,3083.43 1697.32,3085.32 1697.59,2845.9 1666.43,2846.34 1665.74,2945.64 1551.66,2945.5 1549.98,2846.38 1519.92,2846.05 "/>
  <polygon id="_1_19" class="fil3" points="1519.51,3083.92 1550,3084.94 1550.2,2972.88 1666.2,2972.88 1666.1,3083.43 1697.32,3085.32 1697.59,2845.9 1666.43,2846.34 1665.74,2945.64 1551.66,2945.5 1549.98,2846.38 1519.92,2846.05 "/>
  <path class="fil3" d="M2423.18 3088.83l41.35 0c24.77,-13.34 61.83,-15.03 68.77,-85.22 4.01,-40.46 2.94,-116.51 0.48,-157.96l-30.6 -0.15c-3.34,100.53 21.7,214.65 -55.38,217.67 -82.42,3.23 -55.29,-122.12 -59.44,-217.76l-30.46 0.34c-3.05,47.91 -10.71,174.99 18.59,212.97 15.25,19.77 23.23,17.3 46.67,30.11l0 0 0 0z"/>
  <path id="_1_20" class="fil3" d="M2423.18 3088.83l41.35 0c24.77,-13.34 61.83,-15.03 68.77,-85.22 4.01,-40.46 2.94,-116.51 0.48,-157.96l-30.6 -0.15c-3.34,100.53 21.7,214.65 -55.38,217.67 -82.42,3.23 -55.29,-122.12 -59.44,-217.76l-30.46 0.34c-3.05,47.91 -10.71,174.99 18.59,212.97 15.25,19.77 23.23,17.3 46.67,30.11l0 0 0 0z"/>
  <path class="fil3" d="M961.53 2420.21l-30.19 -0.24c-5.82,98.2 23.68,217.32 -58.27,217.29 -82.34,-0.03 -51.26,-147.54 -57.08,-217.34l-30.12 0.43c-1.98,42.61 -3.65,122.82 0.85,162.16 12.84,112.31 159.9,106.28 173.8,0.64 4.64,-35.27 3.88,-125.67 1.01,-162.96l0 0 0 -0z"/>
  <path id="_1_21" class="fil3" d="M961.53 2420.21l-30.19 -0.24c-5.82,98.2 23.68,217.32 -58.27,217.29 -82.34,-0.03 -51.26,-147.54 -57.08,-217.34l-30.12 0.43c-1.98,42.61 -3.65,122.82 0.85,162.16 12.84,112.31 159.9,106.28 173.8,0.64 4.64,-35.27 3.88,-125.67 1.01,-162.96l0 0 0 -0z"/>
  <path class="fil3" d="M1355.38 3088.83l41.34 0c21.05,-11.59 34.52,-12.21 47.85,-29.29 11.37,-14.57 18.4,-34.34 20.3,-56.28 3.63,-41.87 2.81,-114.69 0.35,-157.23l-30.32 0.18c-3.86,96.29 22.5,217.5 -58.52,217.04 -77.82,-0.44 -52.79,-125.38 -56.36,-217.77l-30.79 1.06c-1.66,46.25 -2.52,107.28 0.14,152.18 1.32,22.28 6.11,40.49 17.45,58.1 15.5,24.06 23,18.55 48.56,32.03l0 0z"/>
  <path id="_1_22" class="fil3" d="M1355.38 3088.83l41.34 0c21.05,-11.59 34.52,-12.21 47.85,-29.29 11.37,-14.57 18.4,-34.34 20.3,-56.28 3.63,-41.87 2.81,-114.69 0.35,-157.23l-30.32 0.18c-3.86,96.29 22.5,217.5 -58.52,217.04 -77.82,-0.44 -52.79,-125.38 -56.36,-217.77l-30.79 1.06c-1.66,46.25 -2.52,107.28 0.14,152.18 1.32,22.28 6.11,40.49 17.45,58.1 15.5,24.06 23,18.55 48.56,32.03l0 0z"/>
  <path class="fil3" d="M2231.92 2877.35l34.48 108.14 -70.08 -1.01 35.6 -107.12 0 0 0 -0zm-99.7 207.69l32.79 0.07 23.85 -74.52 80.49 -0.92c18.43,15.93 17.32,54.78 32.47,74.84l30.15 0.85c-5.17,-23.22 -74.61,-227.47 -82.92,-239.14l-35.64 -0.27 -81.19 239.1 -0.01 0 0 -0z"/>
  <path id="_1_23" class="fil3" d="M2231.92 2877.35l34.48 108.14 -70.08 -1.01 35.6 -107.12 0 0 0 -0zm-99.7 207.69l32.79 0.07 23.85 -74.52 80.49 -0.92c18.43,15.93 17.32,54.78 32.47,74.84l30.15 0.85c-5.17,-23.22 -74.61,-227.47 -82.92,-239.14l-35.64 -0.27 -81.19 239.1 -0.01 0 0 -0z"/>
  <polygon class="fil0" points="1444.49,2038.93 1500.13,2038.35 1500.19,1769.58 1442.9,1771.01 "/>
  <polygon id="_1_24" class="fil3" points="1444.49,2038.93 1500.13,2038.35 1500.19,1769.58 1442.9,1771.01 "/>
  <path class="fil3" d="M435.96 2657.8c22.08,3.24 45.39,1.46 67.77,1.45l56.53 -0.92c7.65,-1.68 6.42,-1.48 10.32,-3.8l0.01 -16.23c-14.26,-9.54 -78.28,-5.12 -102.51,-5.38l-1.01 -85.91 92.79 -0.28 -0.43 -24.79 -92.67 -0.66 -0.11 -75.43 96.68 -0.07 2.03 -25.99 -128.9 0.16 -0.51 237.87 -0.01 -0.01 0 -0z"/>
  <path id="_1_25" class="fil3" d="M435.96 2657.8c22.08,3.24 45.39,1.46 67.77,1.45l56.53 -0.92c7.65,-1.68 6.42,-1.48 10.32,-3.8l0.01 -16.23c-14.26,-9.54 -78.28,-5.12 -102.51,-5.38l-1.01 -85.91 92.79 -0.28 -0.43 -24.79 -92.67 -0.66 -0.11 -75.43 96.68 -0.07 2.03 -25.99 -128.9 0.16 -0.51 237.87 -0.01 -0.01 0 -0z"/>
  <polygon class="fil3" points="1717.87,2658.53 1852.62,2659.32 1852.65,2632.92 1750.14,2633.01 1748.35,2546.92 1840.43,2546.86 1841.69,2522.51 1748.59,2521.24 1748.51,2445.67 1845.39,2445.75 1847.06,2420.16 1718.54,2419.82 "/>
  <polygon id="_1_26" class="fil3" points="1717.87,2658.53 1852.62,2659.32 1852.65,2632.92 1750.14,2633.01 1748.35,2546.92 1840.43,2546.86 1841.69,2522.51 1748.59,2521.24 1748.51,2445.67 1845.39,2445.75 1847.06,2420.16 1718.54,2419.82 "/>
  <path class="fil3" d="M2617.84 3088.83l40.73 0c31.52,-16.93 54.49,-14.6 61.12,-57.32 15.06,-96.95 -121.55,-68.81 -106.01,-136.8 8.65,-37.89 58.53,-25.79 89.89,-16.93l7.03 -24.04c-86.32,-49.08 -183.89,47.83 -97.41,106.38 28.82,19.51 84.07,21.14 74.5,71.23 -9.46,49.56 -70.56,26.24 -104.95,17.31l-6.37 23.75c16.2,11.73 25.93,9.07 41.46,16.41l0 -0.01 0.01 0.01z"/>
  <path id="_1_27" class="fil3" d="M2617.84 3088.83l40.73 0c31.52,-16.93 54.49,-14.6 61.12,-57.32 15.06,-96.95 -121.55,-68.81 -106.01,-136.8 8.65,-37.89 58.53,-25.79 89.89,-16.93l7.03 -24.04c-86.32,-49.08 -183.89,47.83 -97.41,106.38 28.82,19.51 84.07,21.14 74.5,71.23 -9.46,49.56 -70.56,26.24 -104.95,17.31l-6.37 23.75c16.2,11.73 25.93,9.07 41.46,16.41l0 -0.01 0.01 0.01z"/>
  <path class="fil3" d="M605.56 2622.49l-6.29 27.41c161.54,47.74 161.31,-73.74 123.55,-104.89 -24.58,-20.27 -79.75,-26.05 -86.81,-59.21 -14.21,-66.78 86.13,-35.24 90.59,-34.33l6.25 -23.94c-93.75,-48.37 -179.63,52.35 -96.87,106.9 31.45,20.73 83.71,20.72 74.6,70.6 -8.37,45.72 -70.12,29.59 -105.02,17.45l0 0.01z"/>
  <path id="_1_28" class="fil3" d="M605.56 2622.49l-6.29 27.41c161.54,47.74 161.31,-73.74 123.55,-104.89 -24.58,-20.27 -79.75,-26.05 -86.81,-59.21 -14.21,-66.78 86.13,-35.24 90.59,-34.33l6.25 -23.94c-93.75,-48.37 -179.63,52.35 -96.87,106.9 31.45,20.73 83.71,20.72 74.6,70.6 -8.37,45.72 -70.12,29.59 -105.02,17.45l0 0.01z"/>
  <path class="fil3" d="M2146.98 2622.36l-6.43 24.54c28.69,21.37 87.11,20.38 117.07,0.08 30.55,-20.71 37.97,-68.89 8.72,-99 -24.04,-24.75 -79.89,-29.42 -88.12,-58.12 -6.85,-23.87 4.8,-40.2 23.22,-45.6 29.8,-8.72 45.01,4.96 66.58,6.45l7.64 -25.14c-134.84,-36.7 -162.31,70.56 -100.38,107.85 29.78,17.94 82.21,22.68 77.32,67.7 -6.45,59.51 -90.48,25.83 -105.6,21.23l0 0.01 -0.01 -0z"/>
  <path id="_1_29" class="fil3" d="M2146.98 2622.36l-6.43 24.54c28.69,21.37 87.11,20.38 117.07,0.08 30.55,-20.71 37.97,-68.89 8.72,-99 -24.04,-24.75 -79.89,-29.42 -88.12,-58.12 -6.85,-23.87 4.8,-40.2 23.22,-45.6 29.8,-8.72 45.01,4.96 66.58,6.45l7.64 -25.14c-134.84,-36.7 -162.31,70.56 -100.38,107.85 29.78,17.94 82.21,22.68 77.32,67.7 -6.45,59.51 -90.48,25.83 -105.6,21.23l0 0.01 -0.01 -0z"/>
  <polygon class="fil3" points="1116.35,3084.75 1147.21,3085.31 1147.42,2978.15 1237.92,2976.45 1237.58,2951.57 1147.49,2951.01 1147.31,2871.51 1243.97,2871.6 1245.59,2846.67 1116.99,2845.73 "/>
  <polygon id="_1_30" class="fil3" points="1116.35,3084.75 1147.21,3085.31 1147.42,2978.15 1237.92,2976.45 1237.58,2951.57 1147.49,2951.01 1147.31,2871.51 1243.97,2871.6 1245.59,2846.67 1116.99,2845.73 "/>
  <polygon class="fil3" points="1950.6,2445.11 2022.92,2446.11 2022.86,2657.96 2054.53,2659.42 2054.55,2446.65 2126.03,2445.98 2127.57,2419.98 1950.64,2419.9 "/>
  <polygon id="_1_31" class="fil3" points="1950.6,2445.11 2022.92,2446.11 2022.86,2657.96 2054.53,2659.42 2054.55,2446.65 2126.03,2445.98 2127.57,2419.98 1950.64,2419.9 "/>
  <path class="fil3" d="M948.72 3085.34c22.19,-0.49 44.31,-0.29 66.43,-0.29 10.87,0.01 21.68,0.03 32.54,0.15 14.26,0.16 24.1,1.18 34.42,-4.5 0,-29.7 6.24,-22.22 -46.65,-21.72 -18.08,0.17 -36.7,1.01 -54.59,-0.82l-1.08 -212.52 -30.57 -0.05 -0.49 239.75 0 -0.01 0.01 0z"/>
  <path id="_1_32" class="fil3" d="M948.72 3085.34c22.19,-0.49 44.31,-0.29 66.43,-0.29 10.87,0.01 21.68,0.03 32.54,0.15 14.26,0.16 24.1,1.18 34.42,-4.5 0,-29.7 6.24,-22.22 -46.65,-21.72 -18.08,0.17 -36.7,1.01 -54.59,-0.82l-1.08 -212.52 -30.57 -0.05 -0.49 239.75 0 -0.01 0.01 0z"/>
  <polygon class="fil3" points="1751.01,3083.78 1884.22,3085.14 1884.63,3059.09 1783.39,3059.01 1781.78,2846.23 1751.41,2846.14 "/>
  <polygon id="_1_33" class="fil3" points="1751.01,3083.78 1884.22,3085.14 1884.63,3059.09 1783.39,3059.01 1781.78,2846.23 1751.41,2846.14 "/>
  <polygon class="fil3" points="1892.68,2658.22 1923.54,2658.95 1923.48,2420.46 1893.3,2420 "/>
  <polygon id="_1_34" class="fil3" points="1892.68,2658.22 1923.54,2658.95 1923.48,2420.46 1893.3,2420 "/>
 </g>
</svg>
