<svg width="270px" height="130px" viewBox="0 0 270 130" version="1.1" xmlns="http://www.w3.org/2000/svg" xmlns:xlink="http://www.w3.org/1999/xlink">
    <g id="Page-1" stroke="none" stroke-width="1" fill="none" fill-rule="evenodd">
        <g id="image2vector" transform="translate(0.747000, 0.670678)" fill="#F9F9F9">
            <path d="M45.788,0.222322068 C39.923,1.87632207 41.41,9.12732207 47.613,9.12732207 C54.613,9.12732207 55.271,0.602322068 48.316,0.023322068 C47.506,-0.044677932 46.435,0.040322068 45.788,0.222322068 M69.826,9.63732207 C53.817,13.8273221 53.545,39.7173221 69.466,43.9323221 C75.626,45.5633221 82.396,43.2523221 85.631,38.4153221 L86.862,36.5743221 L86.862,39.9543221 L86.862,43.3333221 L91.781,43.3333221 L96.701,43.3333221 L96.701,26.8963221 L96.701,10.4603221 L91.781,10.4603221 L86.862,10.4603221 L86.862,13.6373221 L86.862,16.8143221 L85.898,15.3383221 C82.613,10.3103221 76.092,7.99732207 69.826,9.63732207 M113.857,9.43132207 C105.602,10.5733221 100.743,16.8063221 103.475,22.7503221 C104.991,26.0493221 107.522,27.4493221 115.533,29.4203221 C122.928,31.2403221 123.812,31.7303221 123.814,34.0173221 C123.819,38.9413221 111.49,38.2323221 103.239,32.8333221 L102.699,32.4803221 L102.699,36.2243221 L102.699,39.9683221 L103.719,40.6133221 C110.179,44.7033221 121.539,45.5963221 128.014,42.5233221 C132.077,40.5963221 133.777,37.9273221 133.766053,33.4993221 C133.75,27.4703221 131.27,25.4443221 121.175,23.2143221 C113.782,21.5813221 112.777,21.1023221 112.777,19.2183221 C112.777,15.4763221 122.316,15.1403221 129.505,18.6293221 C130.853,19.2833221 132.014,19.8183221 132.085,19.8183221 C132.155,19.8183221 132.213,18.2543221 132.213,16.3423221 L132.213,12.8653221 L131.256,12.2613221 C127.531,9.90932207 119.659,8.62932207 113.857,9.43132207 M150.81,9.65932207 C140.455,11.8753221 134.522,21.3683221 137.216,31.4083221 C141.696,48.0983221 168.66,49.0993221 174.542,32.7933221 C179.634,18.6773221 166.859,6.22432207 150.81,9.65932207 M198.707,9.63932207 C195.608,10.4733221 192.701,12.8433221 191.068,15.8663221 L190.295,17.2983221 L190.288,13.8793221 L190.282,10.4603221 L185.363,10.4603221 L180.444,10.4603221 L180.444,26.8963221 L180.444,43.3333221 L185.35,43.3333221 L190.257,43.3333221 L190.33,33.5553221 C190.413,22.5673221 190.452,22.3073221 192.333,20.1093221 C195.379,16.5513221 202.457,16.5733221 204.857,20.1473221 C206.411,22.4623221 206.447,22.7503221 206.542,33.5553221 L206.628,43.3333221 L211.551,43.3333221 L216.474,43.3333221 L216.372,32.2353221 C216.258,19.9123221 216.192,19.2923221 214.645,16.0353221 C212.066,10.6033221 205.267,7.87532207 198.707,9.63932207 M235.033,9.65932207 C214.467,14.0603221 216.91,42.6623221 237.989,44.2643221 C250.367,45.2043221 259.104,38.5883221 259.796,27.7503221 C260.595,15.2483221 248.885,6.69432207 235.033,9.65932207 M0,10.5473221 C0,10.5953221 3.342,17.9653221 7.426,26.9243221 L14.852,43.2133221 L19.914,43.2133221 L24.976,43.2133221 L32.394,26.8963221 L39.811,10.5803221 L34.849,10.5153221 C32.119,10.4793221 29.771,10.4943221 29.631,10.5483221 C29.49,10.6023221 27.286,15.6253221 24.731,21.7103221 C22.177,27.7963221 20.022,32.7723221 19.942,32.7693221 C19.861,32.7653221 17.699,27.7443221 15.137,21.6113221 L10.478,10.4603221 L5.239,10.4603221 C2.357,10.4603221 0,10.4993221 0,10.5473221 M42.711,27.4963221 L42.711,43.3333221 L47.63,43.3333221 L52.549,43.3333221 L52.549,27.4963221 L52.549,11.6603221 L47.63,11.6603221 L42.711,11.6603221 L42.711,27.4963221 M157.888,17.1933221 C168.504,18.8993221 168.338,34.7853221 157.687,36.4343221 C150.008,37.6223221 144.496,30.6153221 147.114,22.9923221 C148.042,20.2883221 150.575,17.9593221 153.152,17.4373221 C155.256,17.0123221 155.353,16.9953221 155.849,16.9683221 C156.113,16.9543221 157.03,17.0553221 157.888,17.1933221 M242.111,17.1933221 C247.514,18.0613221 250.668,22.6363221 249.816,28.3673221 C248.182,39.3543221 232.412,39.3623221 230.857,28.3773221 C230.071,22.8303221 233.265,18.0473221 238.317,17.2073221 C240.096,16.9113221 240.35,16.9103221 242.111,17.1933221 M81.86,18.0603221 C89.579,21.6923221 88.533,33.6533221 80.289,36.0223221 C76.946,36.9833221 73.051,36.1493221 70.68,33.9623221 C66.343,29.9653221 67.159,21.3843221 72.154,18.4573221 C74.823,16.8933221 79.015,16.7213221 81.86,18.0603221 M262.931,34.6833221 C257.94,36.2663221 258.868,43.3313221 264.067,43.3313221 C269.62,43.3313221 270.048,35.2953221 264.532,34.5953221 C264.012,34.5293221 263.292,34.5693221 262.931,34.6833221 M265.649,36.0263221 C267.904,37.1923221 267.827,40.8963221 265.527,41.9883221 C263.267,43.0603221 260.828,41.4813221 260.828,38.9463221 C260.828,36.4353221 263.413,34.8703221 265.649,36.0263221 M262.027,38.8943221 L262.027,41.4143221 L262.747,41.4143221 C263.41,41.4143221 263.467,41.3473221 263.467,40.5743221 C263.467,40.1123221 263.551,39.7343221 263.653,39.7343221 C263.755,39.7343221 264.041,40.1123221 264.29,40.5743221 C264.67,41.2783221 264.873,41.4143221 265.552,41.4143221 L266.361,41.4143221 L265.826,40.4843221 C265.323,39.6103221 265.315,39.5313221 265.699,39.1473221 C267.021,37.8263221 265.732,36.3753221 263.235,36.3753221 L262.027,36.3753221 L262.027,38.8943221 M264.622,38.1143221 C264.682,38.4263221 264.543,38.5343221 264.085,38.5343221 C263.62,38.5343221 263.467,38.4113221 263.467,38.0383221 C263.467,37.4093221 264.501,37.4783221 264.622,38.1143221 M14.637,86.1653221 L14.637,96.1233221 L17.156,96.1233221 L19.676,96.1233221 L19.676,92.0433221 L19.676,87.9643221 L24.715,87.9643221 L29.754,87.9643221 L29.754,92.0433221 L29.754,96.1233221 L32.393,96.1233221 L35.033,96.1233221 L35.033,86.1653221 L35.033,76.2073221 L32.393,76.2073221 L29.754,76.2073221 L29.754,80.0463221 L29.754,83.8853221 L24.715,83.8853221 L19.676,83.8853221 L19.676,80.0463221 L19.676,76.2073221 L17.156,76.2073221 L14.637,76.2073221 L14.637,86.1653221 M44.028,79.5183221 C38.83,81.3153221 36.38,86.8793221 38.703,91.6093221 C42.003,98.3303221 53.44,98.3243221 56.593,91.5993221 C60.079,84.1643221 52.279,76.6643221 44.028,79.5183221 M67.778,79.4223221 C66.849,79.8273221 65.7,80.9743221 65.193,82.0033221 L64.798,82.8053221 L64.792,81.1863221 L64.787,79.5663221 L62.387,79.5663221 L59.988,79.5663221 L59.988,87.8443221 L59.988,96.1233221 L62.364,96.1233221 L64.739,96.1233221 L64.83,91.0243221 C64.94,84.8003221 65.418,83.5653221 67.844,83.2393221 C70.601,82.8693221 71.126,84.0413221 71.222,90.7843221 L71.299,96.1233221 L73.682,96.1233221 L76.065,96.1233221 L76.066,91.3843221 C76.068,84.9883221 76.565,83.5503221 78.88,83.2393221 C81.812,82.8463221 82.303,83.9353221 82.303,90.8343221 L82.303,96.1233221 L84.837,96.1233221 L87.371,96.1233221 L87.297,89.8243221 L87.222,83.5253221 L86.503,82.0853221 C84.482,78.0443221 77.72,77.9683221 76.063,81.9693221 L75.766,82.6873221 L75.112,81.6663221 C73.611,79.3253221 70.315,78.3173221 67.778,79.4223221 M95.809,79.4223221 C87.077,82.2573221 87.925,94.4523221 96.99,96.3963221 C99.85,97.0093221 104.653,96.2663221 106.548,94.9163221 C107.18,94.4663221 107.729,90.8443221 107.165,90.8443221 C107.114,90.8443221 106.385,91.1633221 105.546,91.5533221 C101.798,93.2963221 97.738,92.9203221 95.681,90.6403221 C93.902,88.6693221 93.857,88.6843221 101.293,88.6843221 L107.806,88.6843221 L107.671,86.7053221 C107.427,83.1293221 106.271,81.1373221 103.713,79.8813221 C102.068,79.0733221 97.671,78.8183221 95.809,79.4223221 M49.07,83.1943221 C54.343,84.6543221 53.115,92.6983221 47.63,92.6243221 C44.68,92.5843221 42.951,90.7963221 42.951,87.7843221 C42.951,84.3663221 45.742,82.2723221 49.07,83.1943221 M101.338,83.2533221 C102.266,83.6403221 103.419,84.9313221 103.419,85.5833221 C103.419,86.0213221 103.202,86.0453221 99.1,86.0453221 C96.725,86.0453221 94.781,85.9853221 94.781,85.9133221 C94.781,83.8113221 98.787,82.1863221 101.338,83.2533221 M65.507,117.838322 L65.507,128.036322 L67.906,128.036322 L70.306,128.036322 L70.306,117.838322 L70.306,107.640322 L67.906,107.640322 L65.507,107.640322 L65.507,117.838322 M73.905,117.838322 L73.905,128.036322 L76.305,128.036322 L78.704,128.036322 L78.704,117.838322 L78.704,107.640322 L76.305,107.640322 L73.905,107.640322 L73.905,117.838322 M12.957,108.374322 C12.957,108.522322 14.091,112.943322 15.477,118.198322 C16.862,123.453322 17.996,127.817322 17.996,127.895322 C17.996,127.973322 19.38,128.036322 21.071,128.036322 L24.145,128.036322 L26.133,121.138322 C27.226,117.343322 28.195,114.159322 28.286,114.062322 C28.377,113.965322 29.371,117.042322 30.494,120.901322 L32.535,127.916322 L35.824,127.983322 C37.632,128.020322 39.112,127.987322 39.112,127.910322 C39.112,127.788322 43.968,109.653322 44.299,108.540322 C44.412,108.158322 44.187,108.120322 41.816,108.120322 L39.209,108.120322 L37.441,115.259322 C36.469,119.185322 35.618,122.235322 35.55,122.037322 C35.482,121.839322 34.548,118.654322 33.476,114.959322 L31.525,108.240322 L28.516,108.173322 L25.507,108.106322 L23.505,115.114322 C22.404,118.967322 21.467,122.012322 21.423,121.880322 C21.379,121.747322 20.614,118.624322 19.723,114.939322 L18.103,108.240322 L15.53,108.172322 C13.746,108.125322 12.957,108.187322 12.957,108.374322 M51.046,111.247322 C42.841,113.309322 42.446,124.957322 50.48,127.940322 C53.211,128.954322 59.072,128.448322 61.203,127.014322 C61.941,126.517322 62.702,122.757322 62.064,122.757322 C62.008,122.757322 61.27,123.081322 60.426,123.476322 C56.179,125.463322 51.547,124.695322 50.008,121.749322 C49.397,120.580322 49.3,120.598322 56.182,120.598322 L62.694,120.598322 L62.574,118.487322 C62.379,115.076322 61.163,113.036322 58.592,111.807322 C57.085,111.088322 52.912,110.778322 51.046,111.247322 M90.745,111.364322 C89.422,111.939322 88.521,112.696322 87.794,113.843322 L87.102,114.933322 L87.102,113.206322 L87.102,111.480322 L84.703,111.480322 L82.303,111.480322 L82.303,119.758322 L82.303,128.036322 L84.682,128.036322 L87.06,128.036322 L87.144,123.057322 C87.233,117.731322 87.332,117.255322 88.579,116.132322 C90.333,114.553322 93.436,114.857322 94.596,116.723322 C95.111,117.551322 95.145,117.880322 95.218,122.817322 L95.294,128.036322 L97.797,128.036322 L100.3,128.036322 L100.3,123.041322 C100.3,114.943322 99.531,112.777322 96.155,111.367322 C95.028,110.896322 91.827,110.894322 90.745,111.364322 M108.411,111.450322 C101.219,113.816322 100.376,123.922322 107.085,127.352322 C110.327,129.009322 115.568,128.919322 118.818,127.150322 L119.976,126.520322 L119.976,124.639322 C119.976,123.604322 119.939,122.757322 119.894,122.757322 C119.849,122.757322 119.174,123.074322 118.395,123.460322 C115.727,124.783322 112.771,124.944322 110.316,123.901322 C109.267,123.456322 107.738,122.073322 107.738,121.569322 C107.738,121.452322 107.673,121.186322 107.593,120.977322 C107.462,120.637322 108.119,120.598322 113.951,120.598322 L120.456,120.598322 L120.456,118.826322 C120.456,112.809322 114.803,109.347322 108.411,111.450322 M126.629,111.468322 C123.305,112.531322 121.825,115.214322 123.104,117.856322 C123.919,119.540322 125.393,120.292322 129.912,121.329322 C132.417,121.903322 133.173,122.365322 133.173,123.320322 C133.173,125.520322 126.83,125.386322 123.515,123.116322 L122.615,122.500322 L122.615,124.432322 C122.615,126.668322 122.757,126.823322 125.735,127.856322 C131.383,129.813322 137.839,127.732322 138.161,123.851322 C138.455,120.307322 137.167,119.082322 131.973,117.964322 C127.882,117.083322 126.934,116.412322 128.116,115.231322 C128.576,114.772322 128.893,114.719322 131.201,114.722322 C133.838,114.725322 133.858,114.730322 137.192,116.198322 C137.418,116.297322 137.492,115.873322 137.492,114.491322 L137.492,112.652322 L136.354,112.149322 C133.534,110.901322 129.324,110.607322 126.629,111.468322 M144.863,111.262322 C142.018,111.932322 140.372,113.709322 140.372,116.111322 C140.372,118.684322 141.963,119.956322 146.601,121.095322 C149.909,121.906322 150.325,122.077322 150.698,122.772322 C152.023,125.249322 145.998,125.721322 141.836,123.466322 C140.079,122.515322 140.102,122.499322 140.182,124.609322 L140.252,126.461322 L141.572,127.123322 C148.089,130.391322 155.849,128.225322 155.849,123.137322 C155.849,120.105322 154.718,119.172322 149.557,117.946322 C146.126,117.131322 145.411,116.781322 145.411,115.919322 C145.411,114.312322 150.099,114.063322 153.176,115.506322 C154.082,115.931322 154.865,116.279322 154.916,116.279322 C154.967,116.279322 155.009,115.471322 155.009,114.484322 L155.009,112.689322 L154.056,112.203322 C151.89,111.098322 147.477,110.646322 144.863,111.262322 M56.498,115.314322 C57.468,115.783322 58.308,116.833322 58.308,117.575322 C58.308,117.912322 57.783,117.958322 53.989,117.958322 C51.614,117.958322 49.67,117.866322 49.67,117.754322 C49.67,115.673322 54.025,114.117322 56.498,115.314322 M114.337,115.286322 C115.464,115.799322 115.84,116.203322 116.13,117.215322 L116.343,117.958322 L111.903,117.958322 L107.462,117.958322 L108.02,116.938322 C109.07,115.019322 112.041,114.242322 114.337,115.286322" id="path0"></path>
        </g>
    </g>
</svg>