<svg width="270px" height="46px" viewBox="0 0 270 46" version="1.1" xmlns="http://www.w3.org/2000/svg" xmlns:xlink="http://www.w3.org/1999/xlink">
    <g id="Page-1" stroke="none" stroke-width="1" fill="none" fill-rule="evenodd">
        <g id="image2vector" transform="translate(0.747000, 0.670678)" fill="#F9F9F9">
            <path d="M45.788,0.222322068 C39.923,1.87632207 41.41,9.12732207 47.613,9.12732207 C54.613,9.12732207 55.271,0.602322068 48.316,0.023322068 C47.506,-0.044677932 46.435,0.040322068 45.788,0.222322068 M69.826,9.63732207 C53.817,13.8273221 53.545,39.7173221 69.466,43.9323221 C75.626,45.5633221 82.396,43.2523221 85.631,38.4153221 L86.862,36.5743221 L86.862,39.9543221 L86.862,43.3333221 L91.781,43.3333221 L96.701,43.3333221 L96.701,26.8963221 L96.701,10.4603221 L91.781,10.4603221 L86.862,10.4603221 L86.862,13.6373221 L86.862,16.8143221 L85.898,15.3383221 C82.613,10.3103221 76.092,7.99732207 69.826,9.63732207 M113.857,9.43132207 C105.602,10.5733221 100.743,16.8063221 103.475,22.7503221 C104.991,26.0493221 107.522,27.4493221 115.533,29.4203221 C122.928,31.2403221 123.812,31.7303221 123.814,34.0173221 C123.819,38.9413221 111.49,38.2323221 103.239,32.8333221 L102.699,32.4803221 L102.699,36.2243221 L102.699,39.9683221 L103.719,40.6133221 C110.179,44.7033221 121.539,45.5963221 128.014,42.5233221 C132.077,40.5963221 133.777,37.9273221 133.766053,33.4993221 C133.75,27.4703221 131.27,25.4443221 121.175,23.2143221 C113.782,21.5813221 112.777,21.1023221 112.777,19.2183221 C112.777,15.4763221 122.316,15.1403221 129.505,18.6293221 C130.853,19.2833221 132.014,19.8183221 132.085,19.8183221 C132.155,19.8183221 132.213,18.2543221 132.213,16.3423221 L132.213,12.8653221 L131.256,12.2613221 C127.531,9.90932207 119.659,8.62932207 113.857,9.43132207 M150.81,9.65932207 C140.455,11.8753221 134.522,21.3683221 137.216,31.4083221 C141.696,48.0983221 168.66,49.0993221 174.542,32.7933221 C179.634,18.6773221 166.859,6.22432207 150.81,9.65932207 M198.707,9.63932207 C195.608,10.4733221 192.701,12.8433221 191.068,15.8663221 L190.295,17.2983221 L190.288,13.8793221 L190.282,10.4603221 L185.363,10.4603221 L180.444,10.4603221 L180.444,26.8963221 L180.444,43.3333221 L185.35,43.3333221 L190.257,43.3333221 L190.33,33.5553221 C190.413,22.5673221 190.452,22.3073221 192.333,20.1093221 C195.379,16.5513221 202.457,16.5733221 204.857,20.1473221 C206.411,22.4623221 206.447,22.7503221 206.542,33.5553221 L206.628,43.3333221 L211.551,43.3333221 L216.474,43.3333221 L216.372,32.2353221 C216.258,19.9123221 216.192,19.2923221 214.645,16.0353221 C212.066,10.6033221 205.267,7.87532207 198.707,9.63932207 M235.033,9.65932207 C214.467,14.0603221 216.91,42.6623221 237.989,44.2643221 C250.367,45.2043221 259.104,38.5883221 259.796,27.7503221 C260.595,15.2483221 248.885,6.69432207 235.033,9.65932207 M0,10.5473221 C0,10.5953221 3.342,17.9653221 7.426,26.9243221 L14.852,43.2133221 L19.914,43.2133221 L24.976,43.2133221 L32.394,26.8963221 L39.811,10.5803221 L34.849,10.5153221 C32.119,10.4793221 29.771,10.4943221 29.631,10.5483221 C29.49,10.6023221 27.286,15.6253221 24.731,21.7103221 C22.177,27.7963221 20.022,32.7723221 19.942,32.7693221 C19.861,32.7653221 17.699,27.7443221 15.137,21.6113221 L10.478,10.4603221 L5.239,10.4603221 C2.357,10.4603221 0,10.4993221 0,10.5473221 M42.711,27.4963221 L42.711,43.3333221 L47.63,43.3333221 L52.549,43.3333221 L52.549,27.4963221 L52.549,11.6603221 L47.63,11.6603221 L42.711,11.6603221 L42.711,27.4963221 M157.888,17.1933221 C168.504,18.8993221 168.338,34.7853221 157.687,36.4343221 C150.008,37.6223221 144.496,30.6153221 147.114,22.9923221 C148.042,20.2883221 150.575,17.9593221 153.152,17.4373221 C155.256,17.0123221 155.353,16.9953221 155.849,16.9683221 C156.113,16.9543221 157.03,17.0553221 157.888,17.1933221 M242.111,17.1933221 C247.514,18.0613221 250.668,22.6363221 249.816,28.3673221 C248.182,39.3543221 232.412,39.3623221 230.857,28.3773221 C230.071,22.8303221 233.265,18.0473221 238.317,17.2073221 C240.096,16.9113221 240.35,16.9103221 242.111,17.1933221 M81.86,18.0603221 C89.579,21.6923221 88.533,33.6533221 80.289,36.0223221 C76.946,36.9833221 73.051,36.1493221 70.68,33.9623221 C66.343,29.9653221 67.159,21.3843221 72.154,18.4573221 C74.823,16.8933221 79.015,16.7213221 81.86,18.0603221 M262.931,34.6833221 C257.94,36.2663221 258.868,43.3313221 264.067,43.3313221 C269.62,43.3313221 270.048,35.2953221 264.532,34.5953221 C264.012,34.5293221 263.292,34.5693221 262.931,34.6833221 M265.649,36.0263221 C267.904,37.1923221 267.827,40.8963221 265.527,41.9883221 C263.267,43.0603221 260.828,41.4813221 260.828,38.9463221 C260.828,36.4353221 263.413,34.8703221 265.649,36.0263221 M262.027,38.8943221 L262.027,41.4143221 L262.747,41.4143221 C263.41,41.4143221 263.467,41.3473221 263.467,40.5743221 C263.467,40.1123221 263.551,39.7343221 263.653,39.7343221 C263.755,39.7343221 264.041,40.1123221 264.29,40.5743221 C264.67,41.2783221 264.873,41.4143221 265.552,41.4143221 L266.361,41.4143221 L265.826,40.4843221 C265.323,39.6103221 265.315,39.5313221 265.699,39.1473221 C267.021,37.8263221 265.732,36.3753221 263.235,36.3753221 L262.027,36.3753221 L262.027,38.8943221 M264.622,38.1143221 C264.682,38.4263221 264.543,38.5343221 264.085,38.5343221 C263.62,38.5343221 263.467,38.4113221 263.467,38.0383221 C263.467,37.4093221 264.501,37.4783221 264.622,38.1143221" id="path0"></path>
        </g>
    </g>
</svg>